<?xml version="1.0" encoding="UTF-8"?>
<!-- This file is generated by npm run build:icons -->
<svg xmlns="http://www.w3.org/2000/svg" xmlns:xlink="http://www.w3.org/1999/xlink" width="0" height="0">
<defs>
<symbol viewBox="0 0 24 24" fill="none" id="arrow">
<path d="M21 11H6.414L11.707 5.70697L10.293 4.29297L2.586 12L10.293 19.707L11.707 18.293L6.414 13H21V11Z" fill="#495057"></path>
</symbol>
<symbol viewBox="0 0 18 18" fill="none" id="bx-check-circle">
<path d="M9 1.5C4.8645 1.5 1.5 4.8645 1.5 9C1.5 13.1355 4.8645 16.5 9 16.5C13.1355 16.5 16.5 13.1355 16.5 9C16.5 4.8645 13.1355 1.5 9 1.5ZM9 15C5.69175 15 3 12.3082 3 9C3 5.69175 5.69175 3 9 3C12.3082 3 15 5.69175 15 9C15 12.3082 12.3082 15 9 15Z" fill="#008556"></path>
<path d="M7.49931 10.1903L5.77506 8.46901L4.71606 9.53101L7.50081 12.3098L12.5303 7.28026L11.4698 6.21976L7.49931 10.1903Z" fill="#008556"></path>
</symbol>
<symbol viewBox="0 0 18 18" fill="none" id="bx-unchecked-circle">
<path d="M9 1.5C4.8645 1.5 1.5 4.8645 1.5 9C1.5 13.1355 4.8645 16.5 9 16.5C13.1355 16.5 16.5 13.1355 16.5 9C16.5 4.8645 13.1355 1.5 9 1.5ZM9 15C5.69175 15 3 12.3082 3 9C3 5.69175 5.69175 3 9 3C12.3082 3 15 5.69175 15 9C15 12.3082 12.3082 15 9 15Z" fill="#495057"></path>
<path d="M7.49931 10.1903L5.77506 8.46901L4.71606 9.53101L7.50081 12.3098L12.5303 7.28026L11.4698 6.21976L7.49931 10.1903Z" fill="#495057"></path>
</symbol>
<symbol viewBox="0 0 24 24" fill="none" id="chevron">
      <path         d="M16.293 9.293L12 13.586L7.70697 9.293L6.29297 10.707L12 16.414L17.707 10.707L16.293 9.293Z"
        fill="#495057"
      ></path>
    </symbol>
<symbol viewBox="0 0 14 14" fill="none" id="compound-black">
    <g id="Group">
        <path id="Vector"
            d="M5.5 0.25H1C0.801088 0.25 0.610322 0.329018 0.46967 0.46967C0.329018 0.610322 0.25 0.801088 0.25 1V5.5C0.25 5.69891 0.329018 5.88968 0.46967 6.03033C0.610322 6.17098 0.801088 6.25 1 6.25H5.5C5.69891 6.25 5.88968 6.17098 6.03033 6.03033C6.17098 5.88968 6.25 5.69891 6.25 5.5V1C6.25 0.801088 6.17098 0.610322 6.03033 0.46967C5.88968 0.329018 5.69891 0.25 5.5 0.25ZM4.75 4.75H1.75V1.75H4.75V4.75ZM13 7.75H8.5C8.30109 7.75 8.11032 7.82902 7.96967 7.96967C7.82902 8.11032 7.75 8.30109 7.75 8.5V13C7.75 13.1989 7.82902 13.3897 7.96967 13.5303C8.11032 13.671 8.30109 13.75 8.5 13.75H13C13.1989 13.75 13.3897 13.671 13.5303 13.5303C13.671 13.3897 13.75 13.1989 13.75 13V8.5C13.75 8.30109 13.671 8.11032 13.5303 7.96967C13.3897 7.82902 13.1989 7.75 13 7.75ZM12.25 12.25H9.25V9.25H12.25V12.25ZM10.75 0.25C9.0955 0.25 7.75 1.5955 7.75 3.25C7.75 4.9045 9.0955 6.25 10.75 6.25C12.4045 6.25 13.75 4.9045 13.75 3.25C13.75 1.5955 12.4045 0.25 10.75 0.25ZM10.75 4.75C9.92275 4.75 9.25 4.07725 9.25 3.25C9.25 2.42275 9.92275 1.75 10.75 1.75C11.5773 1.75 12.25 2.42275 12.25 3.25C12.25 4.07725 11.5773 4.75 10.75 4.75ZM3.25 7.75C1.5955 7.75 0.25 9.0955 0.25 10.75C0.25 12.4045 1.5955 13.75 3.25 13.75C4.9045 13.75 6.25 12.4045 6.25 10.75C6.25 9.0955 4.9045 7.75 3.25 7.75ZM3.25 12.25C2.42275 12.25 1.75 11.5773 1.75 10.75C1.75 9.92275 2.42275 9.25 3.25 9.25C4.07725 9.25 4.75 9.92275 4.75 10.75C4.75 11.5773 4.07725 12.25 3.25 12.25Z"
            fill="#000" ></path>
    </g>
</symbol>
<symbol viewBox="0 0 14 14" fill="none" id="compound-white">
    <g id="Group">
        <path id="Vector"
            d="M5.5 0.25H1C0.801088 0.25 0.610322 0.329018 0.46967 0.46967C0.329018 0.610322 0.25 0.801088 0.25 1V5.5C0.25 5.69891 0.329018 5.88968 0.46967 6.03033C0.610322 6.17098 0.801088 6.25 1 6.25H5.5C5.69891 6.25 5.88968 6.17098 6.03033 6.03033C6.17098 5.88968 6.25 5.69891 6.25 5.5V1C6.25 0.801088 6.17098 0.610322 6.03033 0.46967C5.88968 0.329018 5.69891 0.25 5.5 0.25ZM4.75 4.75H1.75V1.75H4.75V4.75ZM13 7.75H8.5C8.30109 7.75 8.11032 7.82902 7.96967 7.96967C7.82902 8.11032 7.75 8.30109 7.75 8.5V13C7.75 13.1989 7.82902 13.3897 7.96967 13.5303C8.11032 13.671 8.30109 13.75 8.5 13.75H13C13.1989 13.75 13.3897 13.671 13.5303 13.5303C13.671 13.3897 13.75 13.1989 13.75 13V8.5C13.75 8.30109 13.671 8.11032 13.5303 7.96967C13.3897 7.82902 13.1989 7.75 13 7.75ZM12.25 12.25H9.25V9.25H12.25V12.25ZM10.75 0.25C9.0955 0.25 7.75 1.5955 7.75 3.25C7.75 4.9045 9.0955 6.25 10.75 6.25C12.4045 6.25 13.75 4.9045 13.75 3.25C13.75 1.5955 12.4045 0.25 10.75 0.25ZM10.75 4.75C9.92275 4.75 9.25 4.07725 9.25 3.25C9.25 2.42275 9.92275 1.75 10.75 1.75C11.5773 1.75 12.25 2.42275 12.25 3.25C12.25 4.07725 11.5773 4.75 10.75 4.75ZM3.25 7.75C1.5955 7.75 0.25 9.0955 0.25 10.75C0.25 12.4045 1.5955 13.75 3.25 13.75C4.9045 13.75 6.25 12.4045 6.25 10.75C6.25 9.0955 4.9045 7.75 3.25 7.75ZM3.25 12.25C2.42275 12.25 1.75 11.5773 1.75 10.75C1.75 9.92275 2.42275 9.25 3.25 9.25C4.07725 9.25 4.75 9.92275 4.75 10.75C4.75 11.5773 4.07725 12.25 3.25 12.25Z"
            fill="#fff" ></path>
    </g>
</symbol>
<symbol viewBox="0 0 40 40" fill="none" id="error_signup">
<path d="M14.344 28.4841L20 22.8281L25.656 28.4841L28.484 25.6561L22.828 20.0001L28.484 14.3441L25.656 11.5161L20 17.1721L14.344 11.5161L11.516 14.3441L17.172 20.0001L11.516 25.6561L14.344 28.4841Z" fill="#C31526"></path>
<path d="M20 40C31.028 40 40 31.028 40 20C40 8.972 31.028 0 20 0C8.972 0 0 8.972 0 20C0 31.028 8.972 40 20 40ZM20 4C28.822 4 36 11.178 36 20C36 28.822 28.822 36 20 36C11.178 36 4 28.822 4 20C4 11.178 11.178 4 20 4Z" fill="#C31526"></path>
</symbol>
<symbol fill="none" viewBox="0 0 16 16" id="file"><path d="M14.5 13.5V5.41a1 1 0 0 0-.3-.7L9.8.29A1 1 0 0 0 9.08 0H1.5v13.5A2.5 2.5 0 0 0 4 16h8a2.5 2.5 0 0 0 2.5-2.5m-1.5 0v-7H8v-5H3v12a1 1 0 0 0 1 1h8a1 1 0 0 0 1-1M9.5 5V2.12L12.38 5zM5.13 5h-.62v1.25h2.12V5zm-.62 3h7.12v1.25H4.5zm.62 3h-.62v1.25h7.12V11z" clip-rule="evenodd" fill="#666" fill-rule="evenodd"></path></symbol>
<symbol fill="none" viewBox="0 0 16 16" id="globe"><g clip-path="url(#a)"><path fill-rule="evenodd" clip-rule="evenodd" d="M10.27 14.1a6.5 6.5 0 0 0 3.67-3.45q-1.24.21-2.7.34-.31 1.83-.97 3.1M8 16A8 8 0 1 0 8 0a8 8 0 0 0 0 16m.48-1.52a7 7 0 0 1-.96 0H7.5a4 4 0 0 1-.84-1.32q-.38-.89-.63-2.08a40 40 0 0 0 3.92 0q-.25 1.2-.63 2.08a4 4 0 0 1-.84 1.31zm2.94-4.76q1.66-.15 2.95-.43a7 7 0 0 0 0-2.58q-1.3-.27-2.95-.43a18 18 0 0 1 0 3.44m-1.27-3.54a17 17 0 0 1 0 3.64 39 39 0 0 1-4.3 0 17 17 0 0 1 0-3.64 39 39 0 0 1 4.3 0m1.1-1.17q1.45.13 2.69.34a6.5 6.5 0 0 0-3.67-3.44q.65 1.26.98 3.1M8.48 1.5l.01.02q.41.37.84 1.31.38.89.63 2.08a40 40 0 0 0-3.92 0q.25-1.2.63-2.08a4 4 0 0 1 .85-1.32 7 7 0 0 1 .96 0m-2.75.4a6.5 6.5 0 0 0-3.67 3.44 29 29 0 0 1 2.7-.34q.31-1.83.97-3.1M4.58 6.28q-1.66.16-2.95.43a7 7 0 0 0 0 2.58q1.3.27 2.95.43a18 18 0 0 1 0-3.44m.17 4.71q-1.45-.12-2.69-.34a6.5 6.5 0 0 0 3.67 3.44q-.65-1.27-.98-3.1" fill="#666"></path></g><defs><clipPath id="a"><path fill="#fff" d="M0 0h16v16H0z"></path></clipPath></defs></symbol>
<symbol viewBox="0 0 16 10" fill="none" id="grow-gray">
<g id="Group">
<path id="Vector" d="M6.499 4.5605L9.499 7.5605L13.7793 3.28025L15.499 5V0.5H10.999L12.7187 2.21975L9.499 5.4395L6.499 2.4395L0.71875 8.21975L1.77925 9.28025L6.499 4.5605Z" fill="#495057"></path>
</g>
</symbol>
<symbol viewBox="0 0 16 10" fill="none" id="grow-green">
<g id="Group">
<path id="Vector" d="M6.499 4.5605L9.499 7.5605L13.7793 3.28025L15.499 5V0.5H10.999L12.7187 2.21975L9.499 5.4395L6.499 2.4395L0.71875 8.21975L1.77925 9.28025L6.499 4.5605Z" fill="#005243"></path>
</g>
</symbol>
<symbol fill="none" viewBox="0 0 394 80" id="next"><path fill="#000" d="M262 0h68.5v12.7h-27.2v66.6h-13.6V12.7H262V0ZM149 0v12.7H94v20.4h44.3v12.6H94v21h55v12.6H80.5V0h68.7zm34.3 0h-17.8l63.8 79.4h17.9l-32-39.7 32-39.6h-17.9l-23 28.6-23-28.6zm18.3 56.7-9-11-27.1 33.7h17.8l18.3-22.7z"></path><path fill="#000" d="M81 79.3 17 0H0v79.3h13.6V17l50.2 62.3H81Zm252.6-.4c-1 0-1.8-.4-2.5-1s-1.1-1.6-1.1-2.6.3-1.8 1-2.5 1.6-1 2.6-1 1.8.3 2.5 1a3.4 3.4 0 0 1 .6 4.3 3.7 3.7 0 0 1-3 1.8zm23.2-33.5h6v23.3c0 2.1-.4 4-1.3 5.5a9.1 9.1 0 0 1-3.8 3.5c-1.6.8-3.5 1.3-5.7 1.3-2 0-3.7-.4-5.3-1s-2.8-1.8-3.7-3.2c-.9-1.3-1.4-3-1.4-5h6c.1.8.3 1.6.7 2.2s1 1.2 1.6 1.5c.7.4 1.5.5 2.4.5 1 0 1.8-.2 2.4-.6a4 4 0 0 0 1.6-1.8c.3-.8.5-1.8.5-3V45.5zm30.9 9.1a4.4 4.4 0 0 0-2-3.3 7.5 7.5 0 0 0-4.3-1.1c-1.3 0-2.4.2-3.3.5-.9.4-1.6 1-2 1.6a3.5 3.5 0 0 0-.3 4c.3.5.7.9 1.3 1.2l1.8 1 2 .5 3.2.8c1.3.3 2.5.7 3.7 1.2a13 13 0 0 1 3.2 1.8 8.1 8.1 0 0 1 3 6.5c0 2-.5 3.7-1.5 5.1a10 10 0 0 1-4.4 3.5c-1.8.8-4.1 1.2-6.8 1.2-2.6 0-4.9-.4-6.8-1.2-2-.8-3.4-2-4.5-3.5a10 10 0 0 1-1.7-5.6h6a5 5 0 0 0 3.5 4.6c1 .4 2.2.6 3.4.6 1.3 0 2.5-.2 3.5-.6 1-.4 1.8-1 2.4-1.7a4 4 0 0 0 .8-2.4c0-.9-.2-1.6-.7-2.2a11 11 0 0 0-2.1-1.4l-3.2-1-3.8-1c-2.8-.7-5-1.7-6.6-3.2a7.2 7.2 0 0 1-2.4-5.7 8 8 0 0 1 1.7-5 10 10 0 0 1 4.3-3.5c2-.8 4-1.2 6.4-1.2 2.3 0 4.4.4 6.2 1.2 1.8.8 3.2 2 4.3 3.4 1 1.4 1.5 3 1.5 5h-5.8z"></path></symbol>
<symbol viewBox="0 0 15 14" fill="none" id="profits-black">
    <g id="Group">
        <path id="Vector"
            d="M0.25 0.25V13C0.25 13.1989 0.329018 13.3897 0.46967 13.5303C0.610322 13.671 0.801088 13.75 1 13.75H13.75V12.25H1.75V0.25H0.25Z"
            fill="#000" ></path>
        <path id="Vector_2"
            d="M9.4707 9.03023C9.54029 9.09994 9.62295 9.15524 9.71393 9.19297C9.80492 9.2307 9.90245 9.25013 10.001 9.25013C10.0995 9.25013 10.197 9.2307 10.288 9.19297C10.379 9.15524 10.4616 9.09994 10.5312 9.03023L14.2812 5.28023L13.2207 4.21973L10.001 7.43948L8.2812 5.71973C8.21161 5.65002 8.12896 5.59471 8.03797 5.55698C7.94699 5.51925 7.84945 5.49983 7.75095 5.49983C7.65245 5.49983 7.55492 5.51925 7.46393 5.55698C7.37295 5.59471 7.29029 5.65002 7.2207 5.71973L3.4707 9.46973L4.5312 10.5302L7.75095 7.31048L9.4707 9.03023Z"
            fill="#000" ></path>
    </g>
</symbol>
<symbol viewBox="0 0 15 14" fill="none" id="profits-white">
<g id="Group">
<path id="Vector" d="M0.25 0.25V13C0.25 13.1989 0.329018 13.3897 0.46967 13.5303C0.610322 13.671 0.801088 13.75 1 13.75H13.75V12.25H1.75V0.25H0.25Z" fill="white"></path>
<path id="Vector_2" d="M9.4707 9.03023C9.54029 9.09994 9.62295 9.15524 9.71393 9.19297C9.80492 9.2307 9.90245 9.25013 10.001 9.25013C10.0995 9.25013 10.197 9.2307 10.288 9.19297C10.379 9.15524 10.4616 9.09994 10.5312 9.03023L14.2812 5.28023L13.2207 4.21973L10.001 7.43948L8.2812 5.71973C8.21161 5.65002 8.12896 5.59471 8.03797 5.55698C7.94699 5.51925 7.84945 5.49983 7.75095 5.49983C7.65245 5.49983 7.55492 5.51925 7.46393 5.55698C7.37295 5.59471 7.29029 5.65002 7.2207 5.71973L3.4707 9.46973L4.5312 10.5302L7.75095 7.31048L9.4707 9.03023Z" fill="white"></path>
</g>
</symbol>
<symbol viewBox="0 0 20 15" fill="none" id="refresh">
<g id="Group">
<path id="Vector" d="M8 6.49999H5.101L5.102 6.49099C5.23257 5.85162 5.48813 5.24434 5.854 4.70399C6.39845 3.9018 7.16215 3.27315 8.054 2.89299C8.356 2.76499 8.671 2.66699 8.992 2.60199C9.65789 2.46698 10.3441 2.46698 11.01 2.60199C11.967 2.79808 12.8451 3.2714 13.535 3.96299L14.951 2.55099C14.3128 1.91262 13.5578 1.40303 12.727 1.04999C12.3033 0.870615 11.8628 0.733939 11.412 0.641986C10.4818 0.452997 9.52316 0.452997 8.593 0.641986C8.14185 0.73432 7.70101 0.871329 7.277 1.05099C6.02753 1.58109 4.95793 2.46108 4.197 3.58499C3.68489 4.34284 3.32676 5.19398 3.143 6.08999C3.115 6.22499 3.1 6.36299 3.08 6.49999H0L4 10.5L8 6.49999ZM12 8.49999H14.899L14.898 8.50799C14.6367 9.78975 13.8812 10.9171 12.795 11.646C12.2548 12.0122 11.6475 12.2677 11.008 12.398C10.3424 12.533 9.65656 12.533 8.991 12.398C8.35163 12.2674 7.74435 12.0119 7.204 11.646C6.93862 11.4665 6.69085 11.2622 6.464 11.036L5.05 12.45C5.68851 13.0882 6.44392 13.5974 7.275 13.95C7.699 14.13 8.142 14.267 8.59 14.358C9.51982 14.5471 10.4782 14.5471 11.408 14.358C13.2005 13.9859 14.7773 12.9294 15.803 11.413C16.3146 10.6557 16.6724 9.80525 16.856 8.90999C16.883 8.77499 16.899 8.63699 16.919 8.49999H20L16 4.49999L12 8.49999Z" fill="#495057"></path>
</g>
</symbol>
<symbol viewBox="0 0 40 41" fill="none" id="success_signup">
<path d="M20 0.5C8.972 0.5 0 9.472 0 20.5C0 31.528 8.972 40.5 20 40.5C31.028 40.5 40 31.528 40 20.5C40 9.472 31.028 0.5 20 0.5ZM20 36.5C11.178 36.5 4 29.322 4 20.5C4 11.678 11.178 4.5 20 4.5C28.822 4.5 36 11.678 36 20.5C36 29.322 28.822 36.5 20 36.5Z" fill="#008556"></path>
<path d="M15.998 23.6741L11.4 19.0841L8.57605 21.9161L16.0021 29.3261L29.4141 15.9141L26.5861 13.0861L15.998 23.6741Z" fill="#008556"></path>
</symbol>
<symbol fill="none" viewBox="0 0 1155 1000" id="vercel"><path d="m577.3 0 577.4 1000H0z" fill="#fff"></path></symbol>
<symbol fill="none" viewBox="0 0 16 16" id="window"><path fill-rule="evenodd" clip-rule="evenodd" d="M1.5 2.5h13v10a1 1 0 0 1-1 1h-11a1 1 0 0 1-1-1zM0 1h16v11.5a2.5 2.5 0 0 1-2.5 2.5h-11A2.5 2.5 0 0 1 0 12.5zm3.75 4.5a.75.75 0 1 0 0-1.5.75.75 0 0 0 0 1.5M7 4.75a.75.75 0 1 1-1.5 0 .75.75 0 0 1 1.5 0m1.75.75a.75.75 0 1 0 0-1.5.75.75 0 0 0 0 1.5" fill="#666"></path></symbol>
<symbol viewBox="0 0 19 20" fill="none" id="zoom-in">
<g id="Group">
<path id="Vector" d="M9 4.5H7V7.5H4V9.5H7V12.5H9V9.5H12V7.5H9V4.5Z" fill="#495057"></path>
<path id="Vector_2" d="M8 0.5C3.589 0.5 0 4.089 0 8.5C0 12.911 3.589 16.5 8 16.5C9.77498 16.4996 11.4988 15.9054 12.897 14.812L17.293 19.208L18.707 17.794L14.311 13.398C15.405 11.9997 15.9996 10.2754 16 8.5C16 4.089 12.411 0.5 8 0.5ZM8 14.5C4.691 14.5 2 11.809 2 8.5C2 5.191 4.691 2.5 8 2.5C11.309 2.5 14 5.191 14 8.5C14 11.809 11.309 14.5 8 14.5Z" fill="#495057"></path>
</g>
</symbol>
<symbol viewBox="0 0 19 20" fill="none" id="zoom-out">
<g id="Group">
<path id="Vector" d="M4 7.5H12V9.5H4V7.5Z" fill="#495057"></path>
<path id="Vector_2" d="M8 16.5C9.77498 16.4996 11.4988 15.9054 12.897 14.812L17.293 19.208L18.707 17.794L14.311 13.398C15.405 11.9997 15.9996 10.2754 16 8.5C16 4.089 12.411 0.5 8 0.5C3.589 0.5 0 4.089 0 8.5C0 12.911 3.589 16.5 8 16.5ZM8 2.5C11.309 2.5 14 5.191 14 8.5C14 11.809 11.309 14.5 8 14.5C4.691 14.5 2 11.809 2 8.5C2 5.191 4.691 2.5 8 2.5Z" fill="#495057"></path>
</g>
</symbol>
</defs>
</svg>
