<svg width="40" height="40" viewBox="0 0 40 40" fill="none" xmlns="http://www.w3.org/2000/svg">
<path d="M14.344 28.4841L20 22.8281L25.656 28.4841L28.484 25.6561L22.828 20.0001L28.484 14.3441L25.656 11.5161L20 17.1721L14.344 11.5161L11.516 14.3441L17.172 20.0001L11.516 25.6561L14.344 28.4841Z" fill="#C31526"/>
<path d="M20 40C31.028 40 40 31.028 40 20C40 8.972 31.028 0 20 0C8.972 0 0 8.972 0 20C0 31.028 8.972 40 20 40ZM20 4C28.822 4 36 11.178 36 20C36 28.822 28.822 36 20 36C11.178 36 4 28.822 4 20C4 11.178 11.178 4 20 4Z" fill="#C31526"/>
</svg>
