<svg width="40" height="41" viewBox="0 0 40 41" fill="none" xmlns="http://www.w3.org/2000/svg">
<path d="M20 0.5C8.972 0.5 0 9.472 0 20.5C0 31.528 8.972 40.5 20 40.5C31.028 40.5 40 31.528 40 20.5C40 9.472 31.028 0.5 20 0.5ZM20 36.5C11.178 36.5 4 29.322 4 20.5C4 11.678 11.178 4.5 20 4.5C28.822 4.5 36 11.678 36 20.5C36 29.322 28.822 36.5 20 36.5Z" fill="#008556"/>
<path d="M15.998 23.6741L11.4 19.0841L8.57605 21.9161L16.0021 29.3261L29.4141 15.9141L26.5861 13.0861L15.998 23.6741Z" fill="#008556"/>
</svg>
